<svg version="1.1" xmlns="http://www.w3.org/2000/svg" width="512" height="512">
    <path d="M0 0 C0.89156296 -0.0096579 1.78312592 -0.0193158 2.70170593 -0.02926636 C5.57461754 -0.05398916 8.44730611 -0.06664963 11.3203125 -0.07421875 C12.29974823 -0.07716949 13.27918396 -0.08012024 14.28829956 -0.0831604 C63.01285567 -0.11653714 63.01285567 -0.11653714 75.9453125 9.42578125 C79.42925243 13.34521367 81.356923 17.04447385 81.50390625 22.35546875 C81.02085782 27.80261065 79.39202971 31.40225973 75.453125 35.1171875 C71.41827828 37.96254045 67.13605206 39.59638198 62.5703125 41.42578125 C49.95133541 46.67705522 38.63297669 52.52823016 28.69140625 62.09765625 C26.4453125 64.23828125 26.4453125 64.23828125 23.5 66.609375 C9.08554126 78.51925031 -0.10276831 97.73497244 -5.5546875 115.23828125 C-5.76496582 115.88861328 -5.97524414 116.53894531 -6.19189453 117.20898438 C-12.43554083 137.27961302 -12.00826449 161.27917266 -5.5546875 181.23828125 C-5.34569824 181.90923828 -5.13670898 182.58019531 -4.92138672 183.27148438 C-0.0112405 198.67499926 7.75794724 212.12048469 18.4453125 224.23828125 C18.94417969 224.86863281 19.44304687 225.49898437 19.95703125 226.1484375 C36.90570692 247.46783183 66.67069993 259.5988394 92.984375 262.6484375 C124.54595987 265.3997981 154.45663746 255.84667564 178.94165039 235.89013672 C194.18972321 223.07101487 204.12372119 207.22467021 211.68408203 189.0390625 C217.56166198 175.13494778 217.56166198 175.13494778 224.1328125 171.92578125 C229.86578192 170.73591967 234.53273245 171.26394802 239.7578125 173.92578125 C245.62913005 178.97784519 247.26331423 184.28272574 248.5703125 191.61328125 C248.72628906 192.40605469 248.88226563 193.19882813 249.04296875 194.015625 C249.56080217 196.750299 250.01299245 199.48875247 250.4453125 202.23828125 C250.62626465 203.3873999 250.8072168 204.53651855 250.99365234 205.72045898 C252.59145956 216.99880363 252.84449627 228.17085372 252.8203125 239.55078125 C252.81949677 240.99969254 252.81949677 240.99969254 252.81866455 242.47787476 C252.75654087 266.55129834 249.41615617 289.15610162 242.4453125 312.23828125 C242.19442871 313.07343262 241.94354492 313.90858398 241.68505859 314.76904297 C231.64027637 347.38390177 213.65619439 377.32137709 190.4453125 402.23828125 C189.23193031 403.62972791 188.02333447 405.02536764 186.8203125 406.42578125 C181.13191228 412.91938881 175.05552873 418.51356958 168.3203125 423.921875 C166.4693159 425.41323503 164.63440401 426.92489871 162.8203125 428.4609375 C150.1286516 439.16952639 136.10973945 447.53147668 121.4453125 455.23828125 C120.7946582 455.58600586 120.14400391 455.93373047 119.47363281 456.29199219 C98.32361913 467.46085567 73.99345117 474.5442304 50.4453125 478.23828125 C49.28974854 478.42084473 48.13418457 478.6034082 46.94360352 478.79150391 C35.67359513 480.39183512 24.5045376 480.63744758 13.1328125 480.61328125 C12.16687164 480.61273743 11.20093079 480.6121936 10.20571899 480.6116333 C-5.69146444 480.57060916 -20.9742443 479.64585488 -36.5546875 476.23828125 C-37.54082031 476.02397461 -38.52695313 475.80966797 -39.54296875 475.58886719 C-80.68601851 466.32763679 -118.66455293 447.01341561 -149.5546875 418.23828125 C-150.94613416 417.02489906 -152.34177389 415.81630322 -153.7421875 414.61328125 C-160.2414509 408.91992651 -165.84238567 402.83961232 -171.25 396.09375 C-172.69580225 394.30242552 -174.16644909 392.53057919 -175.671875 390.7890625 C-207.31744649 353.8692291 -227.34870952 301.35876015 -227.79296875 252.68359375 C-227.8027626 251.79257462 -227.81255646 250.90155548 -227.82264709 249.98353577 C-228.06977464 221.65429212 -225.7888597 195.50365266 -217.5546875 168.23828125 C-217.17836182 166.9855542 -217.17836182 166.9855542 -216.79443359 165.70751953 C-203.42490392 122.29738749 -175.36083111 81.26686088 -139.5546875 53.23828125 C-138.56984375 52.44808594 -137.585 51.65789062 -136.5703125 50.84375 C-98.53892907 20.59968799 -48.96442442 0.44597601 0 0 Z " fill="#920DF6" transform="translate(243.5546875,15.76171875)"/>
</svg>